<svg xmlns="http://www.w3.org/2000/svg" viewBox="0 0 1200 630" role="img" aria-label="Harrisonville Church of Christ — a lighthouse beacon on Outlook Drive">
  <defs>
    <linearGradient id="sky" x1="0" y1="0" x2="0" y2="1">
      <stop offset="0%" stop-color="#0b2538"/>
      <stop offset="100%" stop-color="#103a5c"/>
    </linearGradient>
    <linearGradient id="beam" x1="0" y1="0" x2="1" y2="0">
      <stop offset="0%" stop-color="#ffcf5e" stop-opacity="0.85"/>
      <stop offset="100%" stop-color="#ffcf5e" stop-opacity="0"/>
    </linearGradient>
  </defs>
  <rect width="1200" height="630" fill="url(#sky)"/>
  <g fill="#eef5f9" opacity="0.7">
    <circle cx="120" cy="90" r="3"/><circle cx="300" cy="60" r="2"/><circle cx="200" cy="160" r="2"/>
    <circle cx="980" cy="80" r="3"/><circle cx="1080" cy="150" r="2"/>
  </g>
  <polygon points="930,210 1200,120 1200,320" fill="url(#beam)"/>
  <circle cx="930" cy="210" r="70" fill="#ffcf5e" opacity="0.25"/>
  <g>
    <path d="M905 250 L955 250 L972 470 L888 470 Z" fill="#ffffff"/>
    <rect x="893" y="320" width="74" height="22" fill="#008bbb"/>
    <rect x="900" y="225" width="60" height="26" rx="4" fill="#0f3251"/>
    <circle cx="930" cy="210" r="16" fill="#ffcf5e"/>
    <path d="M898 225 L962 225 L930 196 Z" fill="#0b2538"/>
  </g>
  <path d="M0 500 Q300 470 600 500 T1200 500 L1200 630 L0 630 Z" fill="#008bbb" opacity="0.85"/>
  <text x="90" y="300" font-family="Georgia, serif" font-size="78" font-weight="700" fill="#ffffff">Harrisonville</text>
  <text x="92" y="360" font-family="Georgia, serif" font-size="34" letter-spacing="8" fill="#a7c3d4">CHURCH OF CHRIST</text>
  <text x="92" y="430" font-family="Georgia, serif" font-size="30" font-style="italic" fill="#ffcf5e">Simple, Scripture-based worship on Outlook Drive</text>
</svg>
